<mxfile host="app.diagrams.net" agent="Mozilla/5.0 (Windows NT 10.0; Win64; x64; rv:132.0) Gecko/20100101 Firefox/132.0" version="24.8.4">
  <diagram name="Page-1" id="wzGPRW55bGctZ1w2dZ4h">
    <mxGraphModel dx="1434" dy="1853" grid="1" gridSize="10" guides="1" tooltips="1" connect="1" arrows="1" fold="1" page="1" pageScale="1" pageWidth="850" pageHeight="1100" math="0" shadow="0">
      <root>
        <mxCell id="0" />
        <mxCell id="1" parent="0" />
        <mxCell id="ca8UB5Ujch-c4zYhouuE-1" value="" style="swimlane;startSize=0;" parent="1" vertex="1">
          <mxGeometry x="160" y="-90" width="770" height="570" as="geometry" />
        </mxCell>
        <mxCell id="ca8UB5Ujch-c4zYhouuE-27" style="edgeStyle=orthogonalEdgeStyle;rounded=0;orthogonalLoop=1;jettySize=auto;html=1;exitX=0;exitY=0.5;exitDx=0;exitDy=0;entryX=1;entryY=0;entryDx=0;entryDy=0;endArrow=open;endFill=0;dashed=1;" parent="ca8UB5Ujch-c4zYhouuE-1" source="ca8UB5Ujch-c4zYhouuE-5" target="ca8UB5Ujch-c4zYhouuE-4" edge="1">
          <mxGeometry relative="1" as="geometry" />
        </mxCell>
        <mxCell id="ca8UB5Ujch-c4zYhouuE-5" value="&lt;div&gt;Request to&lt;/div&gt;&lt;div&gt;borrow clothes&lt;/div&gt;&lt;div&gt;UC-FLM8&lt;br&gt;&lt;/div&gt;" style="ellipse;whiteSpace=wrap;html=1;fillColor=none;" parent="ca8UB5Ujch-c4zYhouuE-1" vertex="1">
          <mxGeometry x="580" y="270" width="130" height="70" as="geometry" />
        </mxCell>
        <mxCell id="ca8UB5Ujch-c4zYhouuE-22" style="edgeStyle=orthogonalEdgeStyle;rounded=0;orthogonalLoop=1;jettySize=auto;html=1;exitX=0;exitY=0.5;exitDx=0;exitDy=0;entryX=1;entryY=1;entryDx=0;entryDy=0;dashed=1;endArrow=open;endFill=0;" parent="ca8UB5Ujch-c4zYhouuE-1" source="ca8UB5Ujch-c4zYhouuE-4" target="ca8UB5Ujch-c4zYhouuE-3" edge="1">
          <mxGeometry relative="1" as="geometry" />
        </mxCell>
        <mxCell id="ca8UB5Ujch-c4zYhouuE-23" style="edgeStyle=orthogonalEdgeStyle;rounded=0;orthogonalLoop=1;jettySize=auto;html=1;exitX=0;exitY=1;exitDx=0;exitDy=0;entryX=1;entryY=1;entryDx=0;entryDy=0;endArrow=open;endFill=0;dashed=1;" parent="ca8UB5Ujch-c4zYhouuE-1" source="ca8UB5Ujch-c4zYhouuE-4" target="ca8UB5Ujch-c4zYhouuE-10" edge="1">
          <mxGeometry relative="1" as="geometry">
            <Array as="points">
              <mxPoint x="350" y="540" />
            </Array>
          </mxGeometry>
        </mxCell>
        <mxCell id="ca8UB5Ujch-c4zYhouuE-4" value="&lt;div&gt;Show user profile&lt;/div&gt;&lt;div&gt;UC-FLM6&lt;br&gt;&lt;/div&gt;" style="ellipse;whiteSpace=wrap;html=1;fillColor=none;" parent="ca8UB5Ujch-c4zYhouuE-1" vertex="1">
          <mxGeometry x="330" y="420" width="130" height="70" as="geometry" />
        </mxCell>
        <mxCell id="ca8UB5Ujch-c4zYhouuE-3" value="&lt;div&gt;Show friend list&lt;/div&gt;&lt;div&gt;UC-FLM1&lt;br&gt;&lt;/div&gt;" style="ellipse;whiteSpace=wrap;html=1;fillColor=none;" parent="ca8UB5Ujch-c4zYhouuE-1" vertex="1">
          <mxGeometry x="130" y="340" width="130" height="70" as="geometry" />
        </mxCell>
        <mxCell id="ca8UB5Ujch-c4zYhouuE-20" style="edgeStyle=orthogonalEdgeStyle;rounded=0;orthogonalLoop=1;jettySize=auto;html=1;exitX=0;exitY=0.5;exitDx=0;exitDy=0;entryX=1;entryY=0;entryDx=0;entryDy=0;dashed=1;endArrow=open;endFill=0;" parent="ca8UB5Ujch-c4zYhouuE-1" source="ca8UB5Ujch-c4zYhouuE-8" target="ca8UB5Ujch-c4zYhouuE-6" edge="1">
          <mxGeometry relative="1" as="geometry" />
        </mxCell>
        <mxCell id="J1ibvJJLt7Fnu6ycakTr-25" value="&amp;lt;&amp;lt;extend&amp;gt;&amp;gt;" style="edgeLabel;html=1;align=center;verticalAlign=middle;resizable=0;points=[];labelBackgroundColor=none;" parent="ca8UB5Ujch-c4zYhouuE-20" vertex="1" connectable="0">
          <mxGeometry x="-0.0588" y="-1" relative="1" as="geometry">
            <mxPoint x="-8" y="-14" as="offset" />
          </mxGeometry>
        </mxCell>
        <mxCell id="ca8UB5Ujch-c4zYhouuE-8" value="&lt;div&gt;Accept&lt;/div&gt;&lt;div&gt;friend request&lt;/div&gt;&lt;div&gt;UC-FLM4&lt;br&gt;&lt;/div&gt;" style="ellipse;whiteSpace=wrap;html=1;fillColor=none;" parent="ca8UB5Ujch-c4zYhouuE-1" vertex="1">
          <mxGeometry x="360" y="120" width="130" height="70" as="geometry" />
        </mxCell>
        <mxCell id="ca8UB5Ujch-c4zYhouuE-19" style="edgeStyle=orthogonalEdgeStyle;rounded=0;orthogonalLoop=1;jettySize=auto;html=1;exitX=0;exitY=0.5;exitDx=0;exitDy=0;entryX=0.5;entryY=0;entryDx=0;entryDy=0;dashed=1;endArrow=open;endFill=0;" parent="ca8UB5Ujch-c4zYhouuE-1" source="ca8UB5Ujch-c4zYhouuE-7" target="ca8UB5Ujch-c4zYhouuE-6" edge="1">
          <mxGeometry relative="1" as="geometry" />
        </mxCell>
        <mxCell id="ca8UB5Ujch-c4zYhouuE-7" value="&lt;div&gt;Ignore&lt;/div&gt;&lt;div&gt;friend request&lt;/div&gt;&lt;div&gt;UC-FLM3&lt;br&gt;&lt;/div&gt;" style="ellipse;whiteSpace=wrap;html=1;fillColor=none;" parent="ca8UB5Ujch-c4zYhouuE-1" vertex="1">
          <mxGeometry x="240" y="60" width="130" height="70" as="geometry" />
        </mxCell>
        <mxCell id="ca8UB5Ujch-c4zYhouuE-6" value="&lt;div&gt;Show&lt;/div&gt;&lt;div&gt;friend&amp;nbsp; requests&lt;/div&gt;&lt;div&gt;UC-FLM2&lt;br&gt;&lt;/div&gt;" style="ellipse;whiteSpace=wrap;html=1;fillColor=none;" parent="ca8UB5Ujch-c4zYhouuE-1" vertex="1">
          <mxGeometry x="130" y="200" width="130" height="70" as="geometry" />
        </mxCell>
        <mxCell id="ca8UB5Ujch-c4zYhouuE-26" style="edgeStyle=orthogonalEdgeStyle;rounded=0;orthogonalLoop=1;jettySize=auto;html=1;exitX=0;exitY=0.5;exitDx=0;exitDy=0;entryX=1;entryY=1;entryDx=0;entryDy=0;endArrow=open;endFill=0;dashed=1;" parent="ca8UB5Ujch-c4zYhouuE-1" source="ca8UB5Ujch-c4zYhouuE-12" target="ca8UB5Ujch-c4zYhouuE-4" edge="1">
          <mxGeometry relative="1" as="geometry" />
        </mxCell>
        <mxCell id="ca8UB5Ujch-c4zYhouuE-12" value="&lt;div&gt;Send&lt;/div&gt;&lt;div&gt;friend request&lt;/div&gt;&lt;div&gt;UC-FLM7&lt;br&gt;&lt;/div&gt;" style="ellipse;whiteSpace=wrap;html=1;fillColor=none;" parent="ca8UB5Ujch-c4zYhouuE-1" vertex="1">
          <mxGeometry x="580" y="470" width="130" height="70" as="geometry" />
        </mxCell>
        <mxCell id="ca8UB5Ujch-c4zYhouuE-10" value="&lt;div&gt;Search users&lt;/div&gt;&lt;div&gt;UC-FLM5&lt;br&gt;&lt;/div&gt;" style="ellipse;whiteSpace=wrap;html=1;fillColor=none;" parent="ca8UB5Ujch-c4zYhouuE-1" vertex="1">
          <mxGeometry x="130" y="480" width="130" height="70" as="geometry" />
        </mxCell>
        <mxCell id="J1ibvJJLt7Fnu6ycakTr-23" style="edgeStyle=orthogonalEdgeStyle;rounded=0;orthogonalLoop=1;jettySize=auto;html=1;endArrow=none;endFill=0;dashed=1;" parent="ca8UB5Ujch-c4zYhouuE-1" source="J1ibvJJLt7Fnu6ycakTr-3" edge="1">
          <mxGeometry relative="1" as="geometry">
            <mxPoint x="500" y="300" as="targetPoint" />
          </mxGeometry>
        </mxCell>
        <mxCell id="J1ibvJJLt7Fnu6ycakTr-3" value="&lt;div&gt;Condition: Users are&lt;/div&gt;&lt;div align=&quot;left&quot;&gt;already friends.&lt;br&gt;&lt;/div&gt;" style="text;html=1;align=center;verticalAlign=middle;whiteSpace=wrap;rounded=0;strokeColor=default;dashed=1;" parent="ca8UB5Ujch-c4zYhouuE-1" vertex="1">
          <mxGeometry x="430" y="215" width="140" height="40" as="geometry" />
        </mxCell>
        <mxCell id="J1ibvJJLt7Fnu6ycakTr-24" style="edgeStyle=orthogonalEdgeStyle;rounded=0;orthogonalLoop=1;jettySize=auto;html=1;endArrow=none;endFill=0;dashed=1;" parent="ca8UB5Ujch-c4zYhouuE-1" source="J1ibvJJLt7Fnu6ycakTr-21" edge="1">
          <mxGeometry relative="1" as="geometry">
            <mxPoint x="490" y="480" as="targetPoint" />
            <Array as="points">
              <mxPoint x="460" y="500" />
              <mxPoint x="491" y="500" />
            </Array>
          </mxGeometry>
        </mxCell>
        <mxCell id="J1ibvJJLt7Fnu6ycakTr-21" value="&lt;div&gt;Condition: Users are&lt;/div&gt;&lt;div align=&quot;left&quot;&gt;not friends.&lt;br&gt;&lt;/div&gt;" style="text;html=1;align=center;verticalAlign=middle;whiteSpace=wrap;rounded=0;strokeColor=default;dashed=1;" parent="ca8UB5Ujch-c4zYhouuE-1" vertex="1">
          <mxGeometry x="390" y="520" width="140" height="40" as="geometry" />
        </mxCell>
        <mxCell id="J1ibvJJLt7Fnu6ycakTr-30" value="&amp;lt;&amp;lt;extend&amp;gt;&amp;gt;" style="edgeLabel;html=1;align=center;verticalAlign=middle;resizable=0;points=[];labelBackgroundColor=none;" parent="ca8UB5Ujch-c4zYhouuE-1" vertex="1" connectable="0">
          <mxGeometry x="280" y="440" as="geometry" />
        </mxCell>
        <mxCell id="J1ibvJJLt7Fnu6ycakTr-29" value="&amp;lt;&amp;lt;extend&amp;gt;&amp;gt;" style="edgeLabel;html=1;align=center;verticalAlign=middle;resizable=0;points=[];labelBackgroundColor=none;" parent="ca8UB5Ujch-c4zYhouuE-1" vertex="1" connectable="0">
          <mxGeometry x="230" y="50" as="geometry">
            <mxPoint x="-27" y="28" as="offset" />
          </mxGeometry>
        </mxCell>
        <mxCell id="J1ibvJJLt7Fnu6ycakTr-28" value="&amp;lt;&amp;lt;extend&amp;gt;&amp;gt;" style="edgeLabel;html=1;align=center;verticalAlign=middle;resizable=0;points=[];labelBackgroundColor=none;" parent="ca8UB5Ujch-c4zYhouuE-1" vertex="1" connectable="0">
          <mxGeometry x="330" y="530" as="geometry">
            <mxPoint x="-12" y="-6" as="offset" />
          </mxGeometry>
        </mxCell>
        <mxCell id="J1ibvJJLt7Fnu6ycakTr-27" value="&amp;lt;&amp;lt;extend&amp;gt;&amp;gt;" style="edgeLabel;html=1;align=center;verticalAlign=middle;resizable=0;points=[];labelBackgroundColor=none;" parent="ca8UB5Ujch-c4zYhouuE-1" vertex="1" connectable="0">
          <mxGeometry x="500" y="470" as="geometry" />
        </mxCell>
        <mxCell id="J1ibvJJLt7Fnu6ycakTr-26" value="&amp;lt;&amp;lt;extend&amp;gt;&amp;gt;" style="edgeLabel;html=1;align=center;verticalAlign=middle;resizable=0;points=[];labelBackgroundColor=none;" parent="ca8UB5Ujch-c4zYhouuE-1" vertex="1" connectable="0">
          <mxGeometry x="460" y="290" as="geometry" />
        </mxCell>
        <mxCell id="J1ibvJJLt7Fnu6ycakTr-41" value="&lt;b&gt;&lt;font style=&quot;font-size: 16px;&quot;&gt;Friend List Management&lt;/font&gt;&lt;/b&gt;" style="text;html=1;align=center;verticalAlign=middle;whiteSpace=wrap;rounded=0;" parent="ca8UB5Ujch-c4zYhouuE-1" vertex="1">
          <mxGeometry x="270" width="230" height="40" as="geometry" />
        </mxCell>
        <mxCell id="EjrXVGGBRXjP9jgc-0_A-2" style="edgeStyle=orthogonalEdgeStyle;rounded=0;orthogonalLoop=1;jettySize=auto;html=1;exitX=0;exitY=0.5;exitDx=0;exitDy=0;entryX=1;entryY=0;entryDx=0;entryDy=0;dashed=1;endArrow=open;endFill=0;" edge="1" parent="ca8UB5Ujch-c4zYhouuE-1" source="EjrXVGGBRXjP9jgc-0_A-1" target="ca8UB5Ujch-c4zYhouuE-3">
          <mxGeometry relative="1" as="geometry" />
        </mxCell>
        <mxCell id="EjrXVGGBRXjP9jgc-0_A-3" value="&amp;lt;&amp;lt;extend&amp;gt;&amp;gt;" style="edgeLabel;html=1;align=center;verticalAlign=middle;resizable=0;points=[];labelBackgroundColor=none;" vertex="1" connectable="0" parent="EjrXVGGBRXjP9jgc-0_A-2">
          <mxGeometry x="0.113" y="-1" relative="1" as="geometry">
            <mxPoint x="-29" y="-8" as="offset" />
          </mxGeometry>
        </mxCell>
        <mxCell id="EjrXVGGBRXjP9jgc-0_A-1" value="&lt;div&gt;Remove friend&lt;br&gt;&lt;/div&gt;&lt;div&gt;UC-FLM9&lt;br&gt;&lt;/div&gt;" style="ellipse;whiteSpace=wrap;html=1;fillColor=none;" vertex="1" parent="ca8UB5Ujch-c4zYhouuE-1">
          <mxGeometry x="260" y="250" width="130" height="70" as="geometry" />
        </mxCell>
        <mxCell id="ca8UB5Ujch-c4zYhouuE-15" style="edgeStyle=orthogonalEdgeStyle;rounded=0;orthogonalLoop=1;jettySize=auto;html=1;entryX=0;entryY=0.5;entryDx=0;entryDy=0;endArrow=none;endFill=0;" parent="1" source="ca8UB5Ujch-c4zYhouuE-2" target="ca8UB5Ujch-c4zYhouuE-6" edge="1">
          <mxGeometry relative="1" as="geometry" />
        </mxCell>
        <mxCell id="ca8UB5Ujch-c4zYhouuE-16" style="edgeStyle=orthogonalEdgeStyle;rounded=0;orthogonalLoop=1;jettySize=auto;html=1;entryX=0;entryY=0.5;entryDx=0;entryDy=0;endArrow=none;endFill=0;" parent="1" source="ca8UB5Ujch-c4zYhouuE-2" target="ca8UB5Ujch-c4zYhouuE-3" edge="1">
          <mxGeometry relative="1" as="geometry" />
        </mxCell>
        <mxCell id="ca8UB5Ujch-c4zYhouuE-17" style="edgeStyle=orthogonalEdgeStyle;rounded=0;orthogonalLoop=1;jettySize=auto;html=1;entryX=0;entryY=0.5;entryDx=0;entryDy=0;endArrow=none;endFill=0;" parent="1" source="ca8UB5Ujch-c4zYhouuE-2" target="ca8UB5Ujch-c4zYhouuE-10" edge="1">
          <mxGeometry relative="1" as="geometry" />
        </mxCell>
        <mxCell id="ca8UB5Ujch-c4zYhouuE-2" value="User" style="shape=umlActor;verticalLabelPosition=bottom;verticalAlign=top;html=1;outlineConnect=0;fillColor=none;" parent="1" vertex="1">
          <mxGeometry x="100" y="255" width="30" height="60" as="geometry" />
        </mxCell>
        <mxCell id="J1ibvJJLt7Fnu6ycakTr-33" style="edgeStyle=orthogonalEdgeStyle;rounded=0;orthogonalLoop=1;jettySize=auto;html=1;entryX=1;entryY=0.5;entryDx=0;entryDy=0;endArrow=none;endFill=0;" parent="1" source="ca8UB5Ujch-c4zYhouuE-13" target="ca8UB5Ujch-c4zYhouuE-6" edge="1">
          <mxGeometry relative="1" as="geometry">
            <Array as="points">
              <mxPoint x="580" y="285" />
              <mxPoint x="580" y="145" />
            </Array>
          </mxGeometry>
        </mxCell>
        <mxCell id="J1ibvJJLt7Fnu6ycakTr-34" style="edgeStyle=orthogonalEdgeStyle;rounded=0;orthogonalLoop=1;jettySize=auto;html=1;entryX=1;entryY=0.5;entryDx=0;entryDy=0;endArrow=none;endFill=0;" parent="1" source="ca8UB5Ujch-c4zYhouuE-13" target="ca8UB5Ujch-c4zYhouuE-3" edge="1">
          <mxGeometry relative="1" as="geometry" />
        </mxCell>
        <mxCell id="J1ibvJJLt7Fnu6ycakTr-35" style="edgeStyle=orthogonalEdgeStyle;rounded=0;orthogonalLoop=1;jettySize=auto;html=1;entryX=1;entryY=0.5;entryDx=0;entryDy=0;endArrow=none;endFill=0;" parent="1" source="ca8UB5Ujch-c4zYhouuE-13" target="ca8UB5Ujch-c4zYhouuE-4" edge="1">
          <mxGeometry relative="1" as="geometry">
            <Array as="points">
              <mxPoint x="860" y="285" />
              <mxPoint x="860" y="365" />
            </Array>
          </mxGeometry>
        </mxCell>
        <mxCell id="J1ibvJJLt7Fnu6ycakTr-37" style="edgeStyle=orthogonalEdgeStyle;rounded=0;orthogonalLoop=1;jettySize=auto;html=1;entryX=1;entryY=0.5;entryDx=0;entryDy=0;endArrow=none;endFill=0;" parent="1" source="ca8UB5Ujch-c4zYhouuE-13" target="ca8UB5Ujch-c4zYhouuE-10" edge="1">
          <mxGeometry relative="1" as="geometry">
            <Array as="points">
              <mxPoint x="480" y="285" />
              <mxPoint x="480" y="425" />
            </Array>
          </mxGeometry>
        </mxCell>
        <mxCell id="ca8UB5Ujch-c4zYhouuE-13" value="Database" style="shape=umlActor;verticalLabelPosition=bottom;verticalAlign=top;html=1;outlineConnect=0;fillColor=none;" parent="1" vertex="1">
          <mxGeometry x="970" y="255" width="30" height="60" as="geometry" />
        </mxCell>
        <mxCell id="J1ibvJJLt7Fnu6ycakTr-31" style="edgeStyle=orthogonalEdgeStyle;rounded=0;orthogonalLoop=1;jettySize=auto;html=1;entryX=1;entryY=0.5;entryDx=0;entryDy=0;endArrow=none;endFill=0;" parent="1" source="ca8UB5Ujch-c4zYhouuE-14" target="ca8UB5Ujch-c4zYhouuE-8" edge="1">
          <mxGeometry relative="1" as="geometry" />
        </mxCell>
        <mxCell id="J1ibvJJLt7Fnu6ycakTr-32" style="edgeStyle=orthogonalEdgeStyle;rounded=0;orthogonalLoop=1;jettySize=auto;html=1;entryX=1;entryY=0.5;entryDx=0;entryDy=0;endArrow=none;endFill=0;" parent="1" source="ca8UB5Ujch-c4zYhouuE-14" target="ca8UB5Ujch-c4zYhouuE-12" edge="1">
          <mxGeometry relative="1" as="geometry">
            <Array as="points">
              <mxPoint x="900" y="90" />
              <mxPoint x="900" y="425" />
            </Array>
          </mxGeometry>
        </mxCell>
        <mxCell id="ca8UB5Ujch-c4zYhouuE-14" value="System" style="shape=umlActor;verticalLabelPosition=bottom;verticalAlign=top;html=1;outlineConnect=0;fillColor=none;" parent="1" vertex="1">
          <mxGeometry x="970" y="35" width="30" height="60" as="geometry" />
        </mxCell>
        <mxCell id="EjrXVGGBRXjP9jgc-0_A-4" style="edgeStyle=orthogonalEdgeStyle;rounded=0;orthogonalLoop=1;jettySize=auto;html=1;exitX=1;exitY=0.5;exitDx=0;exitDy=0;entryX=0.5;entryY=0.5;entryDx=0;entryDy=0;entryPerimeter=0;endArrow=none;endFill=0;" edge="1" parent="1" source="EjrXVGGBRXjP9jgc-0_A-1" target="ca8UB5Ujch-c4zYhouuE-13">
          <mxGeometry relative="1" as="geometry">
            <Array as="points">
              <mxPoint x="570" y="195" />
              <mxPoint x="570" y="285" />
            </Array>
          </mxGeometry>
        </mxCell>
      </root>
    </mxGraphModel>
  </diagram>
</mxfile>
